<?xml version="1.0" encoding="UTF-8"?>
<svg xmlns="http://www.w3.org/2000/svg" viewBox="0 0 84 24">
  <path d="M62.948.435c-4.035 0-7.376 3.269-7.376 7.304v.072c0 1.777.649 3.481 1.849 4.753-1.561 1.848-4.179 1.921-4.179 1.921-2.02 0-3.373-1.489-3.373-3.517V.507h-3.877v10.461c0 3.877 3.157 7.232 7.25 7.232 0 0 3.445-.072 5.465-2.597 1.128 1.561 2.957 2.597 5.177 2.597 3.445 0 6.402-2.813 6.402-6.33h-3.805c0 1.345-1.2 2.453-2.597 2.453-1.345 0-2.525-1.128-2.525-2.453V7.739h8.927V7.667C69.35 3.704 66.393.435 62.948.435zM65.473 4.24c0 1.345-1.2 2.453-2.525 2.453-1.345 0-2.525-1.128-2.525-2.453 0-1.345 1.2-2.453 2.525-2.453 1.345 0 2.525 1.128 2.525 2.453zM35.066.435c-4.107 0-7.376 3.269-7.376 7.304 0 4.035 3.269 7.304 7.376 7.304 4.035 0 7.304-3.269 7.304-7.304.072-4.035-3.269-7.304-7.304-7.304zm0 11.229c-2.165 0-3.877-1.777-3.877-3.925 0-2.165 1.777-3.877 3.877-3.877 2.165 0 3.877 1.777 3.877 3.877 0 2.165-1.777 3.925-3.877 3.925zM47.023.507h-3.877v14.536h3.877V.507zM16.576 7.667c0-4.035-3.269-7.232-7.304-7.232C5.237.435 1.968 3.704 1.968 7.739c0 2.525 1.272 4.681 3.157 5.969-1.777 1.993-4.824 2.165-4.824 2.165-1.705.144-2.741 1.489-2.741 2.957v.289h3.805v-.289c0-.36.288-.721.793-.793 3.733-.577 6.546-2.237 8.179-4.107 1.2 1.272 2.885 2.093 4.824 2.093 3.589 0 6.474-2.885 6.474-6.474h-3.877c0 1.345-1.2 2.453-2.525 2.453-1.345 0-2.525-1.128-2.525-2.453V7.739h8.855v-.072h.072zM9.272 4.24c0 1.345-1.2 2.453-2.525 2.453-1.345 0-2.525-1.128-2.525-2.453 0-1.345 1.2-2.453 2.525-2.453 1.345 0 2.525 1.128 2.525 2.453z"/>
  <path d="M81.454 7.667c0-4.035-3.269-7.232-7.304-7.232-4.035 0-7.304 3.269-7.304 7.304 0 2.525 1.272 4.681 3.157 5.969-1.777 1.993-4.824 2.165-4.824 2.165-1.705.144-2.741 1.489-2.741 2.957v.289h3.805v-.289c0-.36.288-.721.793-.793 3.733-.577 6.546-2.237 8.179-4.107 1.2 1.272 2.885 2.093 4.824 2.093 3.589 0 6.474-2.885 6.474-6.474h-3.877c0 1.345-1.2 2.453-2.525 2.453-1.345 0-2.525-1.128-2.525-2.453V7.739h8.855v-.072h.072zM74.15 4.24c0 1.345-1.2 2.453-2.525 2.453-1.345 0-2.525-1.128-2.525-2.453 0-1.345 1.2-2.453 2.525-2.453 1.345 0 2.525 1.128 2.525 2.453z"/></svg>