<?xml version="1.0" encoding="UTF-8"?>
<svg xmlns="http://www.w3.org/2000/svg" viewBox="0 0 88 24">
  <path d="M34.752 19.746V6.243h-.088l-5.433 13.503h-2.074L21.711 6.243h-.087v13.503h-2.548V1.399h3.235l5.833 14.621h.088l5.82-14.621h3.248v18.347h-2.548zm16.649 0h-2.586v-2.263h-.062c-.725 1.602-2.061 2.504-4.072 2.504-2.86 0-4.61-1.894-4.61-4.958V6.37h2.699v8.125c0 2.034.95 3.127 2.81 3.127 1.95 0 3.124-1.373 3.124-3.458V6.37h2.697v13.376zm7.394-13.618h-3.236V3.52h3.236v2.608zm0 13.618h-3.236V6.37h3.236v13.376zM64.09 19.746h-2.586v-2.263h-.061c-.726 1.602-2.062 2.504-4.072 2.504-2.86 0-4.61-1.894-4.61-4.958V6.37h2.698v8.125c0 2.034.95 3.127 2.81 3.127 1.95 0 3.124-1.373 3.124-3.458V6.37h2.697v13.376zm4.46-13.618h-3.236V3.52h3.236v2.608zm0 13.618h-3.236V6.37h3.236v13.376zm12.294-16.556v3.209h2.923v2.088h-2.923v8.314h2.974v2.945h-2.974v-2.945h-2.697V6.37h2.697V3.19h2.974zm-84.244 8.071c0 5.936 4.811 10.747 10.747 10.747S24.094 17.753 24.094 11.817 19.283 1.07 13.347 1.07 3.2 5.881 3.2 11.817zm1.57 0c0-5.057 4.119-9.176 9.177-9.176s9.176 4.119 9.176 9.176-4.119 9.176-9.176 9.176c-5.058 0-9.177-4.119-9.177-9.176z"/>
</svg>