<?xml version="1.0" encoding="UTF-8"?>
<svg xmlns="http://www.w3.org/2000/svg" viewBox="0 0 189 32">
  <g>
    <path d="M44.4 10.6v12.6h-4V10.6h4zm-2 16.1c.7 0 1.3.6 1.3 1.3 0 .7-.6 1.3-1.3 1.3-.7 0-1.3-.6-1.3-1.3 0-.7.6-1.3 1.3-1.3z"/>
    <path d="M48.8 10.6v7.2c.7-1.6 2.3-2.9 4.7-2.9 3.7 0 5.8 2.8 5.8 6.3v5.9h-4v-5.5c0-2.3-1.1-3.7-3.1-3.7-2 0-3.4 1.5-3.4 3.8v5.4h-4V10.6h4z"/>
    <path d="M72.6 22.9c-.7 1.6-2.3 2.9-4.7 2.9-3.7 0-5.9-2.8-5.9-6.3v-5.9h4v5.5c0 2.3 1.1 3.7 3.1 3.7 2 0 3.4-1.5 3.4-3.8v-5.4h4v12.6h-4v-3.3z"/>
    <path d="M80.7 13.6v9.6h-4v-9.6h4zm-2-5.8c1.1 0 2 .9 2 2s-.9 2-2 2-2-.9-2-2 .9-2 2-2z"/>
    <path d="M86.5 16.9v6.3h-4v-9.6h4v2.1c.7-1.6 2.3-2.8 4.7-2.8v3.9c-2.8-.1-4.7 1.2-4.7 0.1z"/>
    <path d="M107.4 23.2v-5.5c0-2.3-1.1-3.7-3-3.7s-3 1.4-3 3.7v5.5h-4v-5.5c0-2.3-1.1-3.7-3-3.7-1.9 0-3 1.4-3 3.7v5.5h-4v-9.6h4v2.1c.7-1.6 2.3-2.8 4.6-2.8 2.2 0 3.8 1.1 4.5 2.8.8-1.7 2.5-2.8 4.8-2.8 3.7 0 5.8 2.8 5.8 6.3v3.9h-3.7z"/>
    <path d="M119.5 13.6v3.2h5v3h-5v3.4h-4v-9.6h4zm-2-5.8c1.1 0 2 .9 2 2s-.9 2-2 2-2-.9-2-2 .9-2 2-2z"/>
    <path d="M129.1 16.9v6.3h-4v-9.6h4v2.1c.7-1.6 2.3-2.8 4.7-2.8v3.9c-2.8-.1-4.7 1.2-4.7 0.1z"/>
    <path d="M146.4 18.4c0 3.5-2.8 6.3-6.3 6.3s-6.3-2.8-6.3-6.3 2.8-6.3 6.3-6.3c3.5-.1 6.3 2.7 6.3 6.3zm-8.7 0c0 1.5 1 2.6 2.4 2.6s2.4-1.2 2.4-2.6c0-1.5-1-2.6-2.4-2.6s-2.4 1.2-2.4 2.6z"/>
    <path d="M160.3 23.2v-5.5c0-2.3-1.1-3.7-3.1-3.7-2 0-3.4 1.5-3.4 3.8v5.4h-4v-9.6h4v2.1c.7-1.6 2.3-2.9 4.7-2.9 3.7 0 5.8 2.8 5.8 6.3v4h-4z"/>
    <path d="M175.6 21.4c-1 1.4-2.6 2.3-4.6 2.3-3.5 0-6.3-2.8-6.3-6.3s2.8-6.3 6.3-6.3c2 0 3.7.9 4.6 2.2v-2h4v12.6h-4v-2.5zm-4-6.7c-1.4 0-2.4 1.2-2.4 2.6 0 1.5 1 2.6 2.4 2.6s2.4-1.2 2.4-2.6c0-1.5-1-2.6-2.4-2.6z"/>
    <path d="M184.6 16.9v6.3h-4v-9.6h4v2.1c.7-1.6 2.3-2.8 4.7-2.8v3.9c-2.8-.1-4.7 1.2-4.7 0.1z"/>
    <path d="M28.3 2v4h-12V2h12zm0 24v4h-12v-4h12zm0-12v4h-12v-4h12zM12.3 2v4h-12V2h12zm0 24v4h-12v-4h12zm0-12v4h-12v-4h12z"/>
  </g>
</svg>