<?xml version="1.0" encoding="UTF-8"?>
<svg xmlns="http://www.w3.org/2000/svg" viewBox="0 0 75 24">
  <path d="M29.513 16.332v1.85h-7.342V5.655h7.161v1.85h-5.137v3.444h4.774v1.814h-4.774v3.57h5.318zm5.319-6.751c2.206 0 3.661 1.455 3.661 3.697v4.904h-1.923v-1.017c-.454.726-1.323 1.162-2.538 1.162-1.632 0-2.755-.944-2.755-2.372 0-1.433 1.105-2.26 2.919-2.377l2.283-.127v-.173c0-1.051-.617-1.637-1.778-1.637-.994 0-1.706.422-1.869 1.128h-1.941c.145-1.587 1.596-2.587 3.941-2.187zm1.647 4.751l-1.905.118c-.98.054-1.487.467-1.487 1.147 0 .698.571 1.128 1.478 1.128 1.196 0 1.914-.812 1.914-1.941v-.453zm10.193.226h1.978c-.263 1.814-1.905 2.955-4.079 2.955-2.692 0-4.352-1.805-4.352-4.742 0-2.919 1.678-4.76 4.343-4.76 2.61 0 4.224 1.75 4.224 4.587v.671h-6.494v.118c.109 1.569 1.051 2.501 2.328 2.501 1.042 0 1.732-.453 2.052-1.332zm-6.376-2.774h4.442c-.091-1.423-.944-2.319-2.179-2.319-1.244 0-2.143.896-2.261 2.319zm12.861-2.065v1.769h-.336c-1.323 0-2.052.708-2.052 2.116v3.878h-2.024V9.726h1.923v1.188c.535-.853 1.387-1.333 2.492-1.333zm4.243-.136c2.737 0 4.443 1.832 4.443 4.76 0 2.937-1.696 4.742-4.443 4.742-2.737 0-4.442-1.805-4.442-4.742 0-2.928 1.705-4.76 4.442-4.76zm0 1.75c-1.46 0-2.37 1.151-2.37 3.01 0 1.869.91 2.992 2.37 2.992 1.46 0 2.365-1.123 2.365-2.992 0-1.859-.905-3.01-2.365-3.01zm10.993-1.75c2.737 0 4.443 1.832 4.443 4.76 0 2.937-1.696 4.742-4.443 4.742-2.737 0-4.442-1.805-4.442-4.742 0-2.928 1.705-4.76 4.442-4.76zm0 1.75c-1.46 0-2.37 1.151-2.37 3.01 0 1.869.91 2.992 2.37 2.992 1.46 0 2.365-1.123 2.365-2.992 0-1.859-.905-3.01-2.365-3.01z"/>
  <path fill-rule="evenodd" clip-rule="evenodd" d="M11.945 15.585c.621-.104 1.322-.502 1.943-.899.104-.104.311-.104.414 0 1.633 1.297 3.37 2.492 5.108 3.684.207.105.207.502.104.71-.725.899-1.529 1.694-2.357 2.492-.104.105-.311.105-.414 0-1.426-1.297-2.956-2.492-4.382-3.788-.104-.105-.104-.399-.104-.502.207-.606.414-1.193.725-1.694-.104 0-.104 0-.104 0 .104 0 .104 0 .104 0h-.104.104v-.105s0 .105-.104.105c0 0 .104-.105.104-.105h-.207.207v.105-.105h-.104c-2.357 0-4.693-.899-6.744-2.074-.311-.21-.725-.399-1.14-.502-.518-.21-1.14-.21-1.633-.502-.518-.21-.932-.71-1.218-1.193C.442 10.62.235 9.619.235 8.618c0-1.798.518-3.494 1.633-4.896C3.398 1.83 5.548.533 7.906.22c2.046-.21 4.175.105 6.117.899 2.668 1.088 4.797 3.18 5.937 5.776.621 1.401.932 2.907.932 4.393 0 1.694-.414 3.389-1.322 4.79-.207.399-.518.71-.829 1.088-.207.21-.414.21-.621.105-1.426-1.088-2.956-2.074-4.382-3.162-.207-.21-.311-.502-.104-.814.414-.71.725-1.485.932-2.284.207-1.088.311-2.18 0-3.284-.414-1.589-1.426-2.907-2.956-3.494-.932-.399-1.943-.502-2.956-.399-1.529.21-2.853.899-3.889 2.074-1.426 1.694-1.736 4.079-.932 6.153.414 1.088 1.218 1.902 2.254 2.389.932.399 1.943.606 2.956.71h.207-.104.104v-.105.105h.104-.207z"/>
</svg>